<svg width="35" height="36" viewBox="0 0 35 36" fill="none" xmlns="http://www.w3.org/2000/svg">
<path d="M29.8185 30.3258H24.6356V22.2044C24.6356 20.2677 24.5963 17.7754 21.9348 17.7754C19.2325 17.7754 18.8198 19.8827 18.8198 22.0615V30.3258H13.6369V13.625H18.6156V15.9015H18.6827C19.3783 14.589 21.07 13.2035 23.5973 13.2035C28.8488 13.2035 29.82 16.6598 29.82 21.1588L29.8185 30.3258ZM7.78312 11.3398C7.38774 11.34 6.99619 11.2622 6.6309 11.1109C6.26561 10.9596 5.93375 10.7377 5.6543 10.458C5.37486 10.1783 5.15332 9.84621 5.00237 9.48077C4.85141 9.11534 4.77401 8.72372 4.77458 8.32833C4.77487 7.73301 4.95169 7.15114 5.28267 6.65631C5.61365 6.16148 6.08394 5.77591 6.63405 5.54836C7.18417 5.3208 7.78941 5.26149 8.37323 5.37791C8.95706 5.49434 9.49325 5.78127 9.91401 6.20243C10.3348 6.62359 10.6212 7.16006 10.737 7.744C10.8529 8.32794 10.793 8.93312 10.5649 9.48302C10.3368 10.0329 9.95079 10.5028 9.45564 10.8333C8.96049 11.1638 8.37845 11.3401 7.78312 11.3398ZM10.3819 30.3258H5.18438V13.625H10.3819V30.3258ZM32.4115 0.5H2.58271C1.155 0.5 0 1.62875 0 3.02146V32.9785C0 34.3727 1.155 35.5 2.58271 35.5H32.4071C33.8333 35.5 35 34.3727 35 32.9785V3.02146C35 1.62875 33.8333 0.5 32.4071 0.5H32.4115Z" fill="#FF3D00"/>
</svg>
