<svg width="34" height="28" viewBox="0 0 34 28" fill="none" xmlns="http://www.w3.org/2000/svg">
<path d="M11.5832 23.501C22.581 23.501 28.5972 15.9965 28.5972 9.50004C28.5972 9.29004 28.5972 9.07704 28.5862 8.86704C29.7575 8.16877 30.7684 7.30427 31.5716 6.31404C30.4775 6.71132 29.318 6.97315 28.1309 7.09104C29.3814 6.4755 30.3179 5.50699 30.7665 4.36554C29.5917 4.93873 28.3058 5.3411 26.9652 5.55504C26.0639 4.76458 24.8713 4.24092 23.572 4.06518C22.2728 3.88944 20.9394 4.07142 19.7784 4.58295C18.6175 5.09447 17.6938 5.90698 17.1503 6.89463C16.6069 7.88228 16.4741 8.98994 16.7725 10.046C14.395 9.94787 12.0692 9.43924 9.94582 8.55315C7.82245 7.66707 5.94896 6.42331 4.44685 4.90254C3.68429 5.98716 3.45158 7.27014 3.79596 8.49094C4.14034 9.71174 5.036 10.7788 6.30107 11.4755C5.35309 11.449 4.42595 11.2394 3.59443 10.8635V10.931C3.59606 12.0673 4.07402 13.1682 4.94752 14.0477C5.82101 14.9272 7.03647 15.5314 8.38843 15.758C7.87526 15.8745 7.34516 15.9325 6.81289 15.9305C6.43765 15.9315 6.06315 15.9028 5.69453 15.845C6.07664 16.8231 6.82067 17.6783 7.82241 18.2908C8.82415 18.9032 10.0334 19.2423 11.2809 19.2605C9.16172 20.6312 6.54405 21.3746 3.84943 21.371C3.37462 21.3727 2.90014 21.3501 2.42871 21.3035C5.16361 22.7394 8.33979 23.5019 11.5832 23.501Z" fill="#FA0C00"/>
</svg>
