<svg width="66" height="67" viewBox="0 0 66 67" fill="none" xmlns="http://www.w3.org/2000/svg">
<circle cx="33" cy="33.6006" r="33" fill="#FFB800"/>
<g clip-path="url(#clip0_164_2215)">
<path d="M34.1667 15H12V37.1667H24.8333V49.4167H47V27.25H34.1667V15ZM21.6472 20.25L17.9859 30.699H20.4583L21.0538 29H24.8333V34.8333H14.3333V17.3333H31.8333V27.25H26.9721L24.5198 20.25H21.6472ZM24.2954 26.6667H21.8713L23.0833 23.2076L24.2954 26.6667ZM44.6667 29.5833V47.0833H27.1667V29.5833H44.6667Z" fill="white"/>
<path d="M33.9794 40.1183C34.2026 40.4768 34.4483 40.8206 34.7151 41.1479C33.8692 41.6041 32.9087 41.8326 31.8333 41.8333V44.1667C33.5936 44.1667 35.1664 43.6994 36.5 42.7941C37.8336 43.6994 39.4064 44.1667 41.1667 44.1667V41.8333C40.0936 41.8333 39.133 41.6047 38.285 41.1474C38.5518 40.8203 38.7974 40.4766 39.0206 40.1183C39.6931 39.025 40.1877 37.8318 40.4858 36.5833H41.75V34.25H37.6667V32.5H35.3333V34.25H31.25V36.5833H32.5142C32.8123 37.8318 33.3069 39.025 33.9794 40.1183ZM38.0699 36.5833C37.8285 37.3909 37.4829 38.1635 37.0418 38.8817C36.877 39.1465 36.696 39.4009 36.5 39.6435C36.3182 39.4188 36.1495 39.1838 35.9947 38.9398C35.5357 38.2056 35.1775 37.413 34.9298 36.5833H38.0699Z" fill="white"/>
</g>
<defs>
<clipPath id="clip0_164_2215">
<rect width="35" height="35" fill="white" transform="translate(15 16.6006)"/>
</clipPath>
</defs>
</svg>
