<svg width="75" height="76" viewBox="0 0 75 76" fill="none" xmlns="http://www.w3.org/2000/svg">
<ellipse cx="37.5" cy="37.8903" rx="37.5" ry="37.8903" fill="#010D82"/>
<path d="M40.6213 48C36.2914 47.3984 36.2914 45.8125 36.2914 44.9375V44.4453C37.394 43.4136 38.1825 42.0857 38.5646 40.6172C39.8636 40.6172 40.1883 37.8281 40.1883 37.4453C40.1883 37.0625 40.0801 35.4766 39.4847 35.3125C41.6497 27.6562 35.1548 24.375 29.5259 28.3125C27.1444 28.3125 26.3867 31.8125 27.2527 35.3125C26.6573 35.3125 26.5491 36.9531 26.5491 37.3906C26.5491 37.8281 26.8738 40.5625 28.1728 40.5625C28.6058 42.1484 29.7965 43.4609 30.8249 44.3906V44.9375C30.8249 45.8125 30.5001 47.4531 26.1161 48C21.732 48.5469 21.0825 52.8125 21.0825 52.8125H44.8972C44.8972 52.8125 44.9513 48.6016 40.6213 48Z" fill="white"/>
<path d="M49.0645 44.0616C44.7346 43.1866 44.897 41.4366 44.897 40.5616V39.6866C47.2317 39.6622 49.556 39.3686 51.8249 38.8116C50.0388 37.007 48.3609 36.2413 48.3609 28.6945C48.3609 19.7804 39.7011 22.5695 39.7011 22.5695C38.9313 22.5324 38.1649 22.6936 37.4738 23.038C36.7826 23.3824 36.1895 23.8986 35.75 24.5382C37.6432 24.8243 39.3516 25.8443 40.5129 27.382C41.9743 29.296 42.4073 31.921 41.8119 34.8195C42.1679 35.6287 42.3523 36.5042 42.3531 37.3898C42.3531 38.4835 41.9202 41.1632 40.2423 42.257C39.8347 43.3334 39.2491 44.332 38.5103 45.2101C39.2391 45.5728 40.0283 45.7953 40.8377 45.8663C41.7637 45.9414 42.6645 46.2084 43.4839 46.6506C44.3034 47.0928 45.0239 47.7008 45.6006 48.4366H53.5568C53.5568 48.4366 53.5568 44.9913 49.0645 44.0616Z" fill="white"/>
</svg>
