<svg width="66" height="67" viewBox="0 0 66 67" fill="none" xmlns="http://www.w3.org/2000/svg">
<circle cx="33" cy="33.9955" r="33" fill="#FA0C00"/>
<path d="M47.0546 43.8397C47.1225 43.464 47.1569 43.0829 47.1574 42.7011C47.156 42.2873 47.1152 41.8745 47.0355 41.4685L48.7231 40.4945L46.5356 36.7046L44.8223 37.6939C44.2185 37.1833 43.5275 36.7859 42.7824 36.5209V34.4974H38.4074V36.5209C37.6693 36.7829 36.984 37.175 36.384 37.6786L34.6985 36.7046L32.511 40.4945L34.1582 41.4449C34.0751 41.8591 34.0329 42.2804 34.0324 42.7027C34.034 43.0926 34.0707 43.4815 34.1418 43.8649L32.3306 44.9094L34.5181 48.6992L36.3124 47.6629C36.9286 48.1962 37.6387 48.6101 38.4063 48.8835V50.907H42.7813V48.8835C43.5579 48.6067 44.2759 48.1871 44.8983 47.6465L46.7188 48.6976L48.9063 44.9077L47.0546 43.8397ZM40.6174 45.4355C40.0766 45.4355 39.5479 45.2751 39.0982 44.9747C38.6486 44.6742 38.2981 44.2472 38.0911 43.7475C37.8842 43.2479 37.83 42.6981 37.9355 42.1677C38.041 41.6372 38.3015 41.15 38.6839 40.7676C39.0663 40.3852 39.5535 40.1248 40.0839 40.0193C40.6143 39.9138 41.1641 39.9679 41.6638 40.1749C42.1634 40.3818 42.5905 40.7323 42.8909 41.182C43.1914 41.6316 43.3517 42.1603 43.3517 42.7011C43.3517 43.0602 43.281 43.4158 43.1436 43.7475C43.0062 44.0793 42.8048 44.3807 42.5509 44.6346C42.2969 44.8885 41.9955 45.0899 41.6638 45.2273C41.332 45.3648 40.9764 45.4355 40.6174 45.4355V45.4355Z" fill="white"/>
<path d="M30.8255 39.0406L32.1861 36.683H16.0938V43.2455C16.0938 43.5356 16.209 43.8138 16.4141 44.0189C16.6192 44.224 16.8974 44.3392 17.1875 44.3392H30.2157C30.3664 43.7799 30.7328 43.3032 31.2345 43.0136L31.8443 42.662V42.6368L31.4172 42.3902C30.9226 42.0909 30.5587 41.6165 30.3978 41.0613C30.3316 40.7129 30.3354 40.3549 30.4088 40.008C30.4822 39.6611 30.6238 39.3322 30.8255 39.0406ZM21.0156 41.6049C20.6911 41.6049 20.3739 41.5086 20.1041 41.3284C19.8343 41.1481 19.6241 40.8919 19.4999 40.5921C19.3757 40.2923 19.3432 39.9624 19.4065 39.6442C19.4698 39.3259 19.6261 39.0336 19.8555 38.8041C20.085 38.5747 20.3773 38.4184 20.6956 38.3551C21.0138 38.2918 21.3437 38.3243 21.6435 38.4485C21.9433 38.5727 22.1995 38.783 22.3798 39.0528C22.56 39.3226 22.6562 39.6397 22.6562 39.9642C22.6562 40.3994 22.4834 40.8167 22.1757 41.1243C21.868 41.432 21.4507 41.6049 21.0156 41.6049ZM38.4062 32.3113H42.7812C43.1219 32.3117 43.4577 32.392 43.7616 32.5457C44.0655 32.6995 44.3292 32.9225 44.5312 33.1967V27.933H16.0938V34.4955H36.2187C36.2196 33.9159 36.4505 33.3603 36.8606 32.9508C37.2708 32.5413 37.8267 32.3113 38.4062 32.3113ZM21.0156 32.8549C20.6911 32.8549 20.3739 32.7586 20.1041 32.5784C19.8343 32.3981 19.6241 32.1419 19.4999 31.8421C19.3757 31.5423 19.3432 31.2124 19.4065 30.8942C19.4698 30.5759 19.6261 30.2836 19.8555 30.0541C20.085 29.8247 20.3773 29.6684 20.6956 29.6051C21.0138 29.5418 21.3437 29.5743 21.6435 29.6985C21.9433 29.8227 22.1995 30.033 22.3798 30.3028C22.56 30.5726 22.6562 30.8897 22.6562 31.2142C22.6562 31.6494 22.4834 32.0667 22.1757 32.3743C21.868 32.682 21.4507 32.8549 21.0156 32.8549V32.8549ZM30.3125 31.2142C30.3125 30.9242 30.4277 30.646 30.6329 30.4408C30.838 30.2357 31.1162 30.1205 31.4062 30.1205H40.1562C40.4463 30.1205 40.7245 30.2357 40.9296 30.4408C41.1348 30.646 41.25 30.9242 41.25 31.2142C41.25 31.5043 41.1348 31.7825 40.9296 31.9876C40.7245 32.1927 40.4463 32.308 40.1562 32.308H31.4062C31.1162 32.308 30.838 32.1927 30.6329 31.9876C30.4277 31.7825 30.3125 31.5043 30.3125 31.2142ZM44.5312 19.183C44.5312 18.8929 44.416 18.6147 44.2109 18.4096C44.0058 18.2045 43.7276 18.0892 43.4375 18.0892H17.1875C16.8974 18.0892 16.6192 18.2045 16.4141 18.4096C16.209 18.6147 16.0938 18.8929 16.0938 19.183V25.7455H44.5312V19.183ZM21.0156 24.1049C20.6911 24.1049 20.3739 24.0086 20.1041 23.8284C19.8343 23.6481 19.6241 23.3919 19.4999 23.0921C19.3757 22.7923 19.3432 22.4624 19.4065 22.1442C19.4698 21.8259 19.6261 21.5336 19.8555 21.3041C20.085 21.0747 20.3773 20.9184 20.6956 20.8551C21.0138 20.7918 21.3437 20.8243 21.6435 20.9485C21.9433 21.0727 22.1995 21.283 22.3798 21.5528C22.56 21.8226 22.6562 22.1397 22.6562 22.4642C22.6562 22.8994 22.4834 23.3167 22.1757 23.6243C21.868 23.932 21.4507 24.1049 21.0156 24.1049ZM40.1562 23.558H31.4062C31.1162 23.558 30.838 23.4427 30.6329 23.2376C30.4277 23.0325 30.3125 22.7543 30.3125 22.4642C30.3125 22.1742 30.4277 21.896 30.6329 21.6908C30.838 21.4857 31.1162 21.3705 31.4062 21.3705H40.1562C40.4463 21.3705 40.7245 21.4857 40.9296 21.6908C41.1348 21.896 41.25 22.1742 41.25 22.4642C41.25 22.7543 41.1348 23.0325 40.9296 23.2376C40.7245 23.4427 40.4463 23.558 40.1562 23.558Z" fill="white"/>
</svg>
