<svg width="59" height="56" viewBox="0 0 59 56" fill="none" xmlns="http://www.w3.org/2000/svg">
<rect x="0.0585938" y="0.641113" width="58.3989" height="55.3222" rx="6" fill="#F2F7FB"/>
<path d="M39.5761 17.3711H25.3311V19.2679H39.5761V17.3711Z" fill="black"/>
<path d="M39.5761 26.8553H25.3311V28.7522H39.5761V26.8553Z" fill="black"/>
<path d="M39.5761 36.3397H25.3311V38.2366H39.5761V36.3397Z" fill="black"/>
<path d="M22.1656 22.1132V15H19V16.8969H20.5828V22.1132H22.1656Z" fill="black"/>
<path d="M19 28.1661V31.1233H22.957V29.2265H20.7696L22.957 27.9158V24.0101H19V25.907H21.3742V26.7434L19 28.1661Z" fill="black"/>
<path d="M19 38.7107V40.6075H22.957V33.0201H19V34.917H21.3742V35.8654H20.1871V37.7622H21.3742V38.7107H19Z" fill="black"/>
</svg>
