<svg width="60" height="56" viewBox="0 0 60 56" fill="none" xmlns="http://www.w3.org/2000/svg">
<rect x="0.660156" y="0.677795" width="58.3989" height="55.3222" rx="6" fill="#F2F7FB"/>
<path d="M20.2498 36.9931C18.1637 35.0145 16.9107 32.3832 16.7256 29.5921C16.5404 26.8011 17.4359 24.0419 19.2441 21.8314C21.0524 19.621 23.6494 18.1109 26.5486 17.5842C29.4478 17.0574 32.4503 17.5501 34.9935 18.97L36.4338 17.6056C33.5031 15.8294 29.983 15.1414 26.5494 15.6736C23.1159 16.2058 20.0108 17.9207 17.8305 20.4892C15.6501 23.0576 14.5481 26.2984 14.7359 29.5895C14.9238 32.8806 16.3884 35.99 18.8484 38.3207C21.1198 40.471 24.0968 41.8238 27.2888 42.1561C30.4807 42.4883 33.6968 41.7802 36.4068 40.1484L34.9631 38.7807C30.3164 41.361 24.2319 40.7654 20.2498 36.9931Z" fill="#FFA028"/>
<path d="M42.7663 34.3383C43.5248 32.6043 43.9152 30.7456 43.9152 28.8685C43.9152 26.9915 43.5248 25.1328 42.7663 23.3988C42.7115 23.2734 42.6544 23.1494 42.5961 23.026C41.8471 21.4366 40.7962 19.9911 39.4958 18.7615L38.7954 18.0977L38.0945 18.7615L27.4253 28.8685L38.1168 38.9968L38.7954 39.6394L39.4958 38.9756C40.7746 37.7662 41.8121 36.3479 42.5586 34.789C42.63 34.64 42.6999 34.4901 42.7663 34.3383ZM38.7681 20.7785C40.8104 23.0299 41.9333 25.9001 41.9333 28.8685C41.9333 31.837 40.8104 34.7072 38.7681 36.9586L30.2281 28.8685L38.7681 20.7785Z" fill="#FFA028"/>
</svg>
