<svg width="278" height="269" viewBox="0 0 278 269" fill="none" xmlns="http://www.w3.org/2000/svg">
<ellipse cx="139.144" cy="134.5" rx="138.405" ry="134.5" fill="#EC1B24"/>
<path d="M220.136 87.474C219.27 85.3166 217.612 83.6023 215.525 82.7063C214.499 82.2539 213.397 82.0139 212.281 82H169.588C167.324 82 165.152 82.9302 163.551 84.586C161.949 86.2417 161.05 88.4875 161.05 90.8291C161.05 93.1707 161.949 95.4164 163.551 97.0722C165.152 98.7279 167.324 99.6581 169.588 99.6581H191.703L143.973 149.013L115.881 119.877C115.088 119.049 114.143 118.392 113.103 117.944C112.062 117.496 110.946 117.265 109.819 117.265C108.692 117.265 107.576 117.496 106.535 117.944C105.495 118.392 104.55 119.049 103.757 119.877L52.5257 172.851C51.7254 173.672 51.0902 174.648 50.6567 175.724C50.2232 176.8 50 177.954 50 179.12C50 180.285 50.2232 181.439 50.6567 182.515C51.0902 183.591 51.7254 184.568 52.5257 185.388C53.3194 186.216 54.2638 186.873 55.3043 187.321C56.3448 187.769 57.4608 188 58.588 188C59.7152 188 60.8312 187.769 61.8717 187.321C62.9122 186.873 63.8566 186.216 64.6503 185.388L109.819 138.594L137.911 167.73C138.704 168.558 139.649 169.215 140.689 169.663C141.73 170.111 142.846 170.342 143.973 170.342C145.1 170.342 146.216 170.111 147.257 169.663C148.297 169.215 149.241 168.558 150.035 167.73L203.742 112.107V134.974C203.742 137.316 204.642 139.562 206.243 141.217C207.844 142.873 210.016 143.803 212.281 143.803C214.545 143.803 216.717 142.873 218.318 141.217C219.92 139.562 220.819 137.316 220.819 134.974V90.8291C220.806 89.6753 220.574 88.5355 220.136 87.474Z" fill="white"/>
</svg>
