<svg width="75" height="77" viewBox="0 0 75 77" fill="none" xmlns="http://www.w3.org/2000/svg">
<ellipse cx="37.5" cy="38.4516" rx="37.5" ry="37.8903" fill="#FFA028"/>
<g clip-path="url(#clip0_167_593)">
<path d="M45.7733 53.3738V50.6394C43.6084 50.6394 40.3918 47.5518 38.7415 46.2557C38.2671 45.9083 37.6958 45.7219 37.1099 45.7235C36.524 45.7251 35.9537 45.9145 35.4811 46.2644C33.8438 47.5725 30.6186 50.6394 28.4536 50.6394V53.3738H45.7733ZM37.1135 40.7957C37.3419 40.7957 38.2409 38.688 39.5599 37.8086L42.5508 35.6862C42.9658 35.3876 43.3499 35.0474 43.6971 34.6707C38.5553 36.7652 34.988 33.03 30.6635 34.78L30.6413 34.785C30.9583 35.1169 31.3045 35.4191 31.6756 35.6879C31.6756 35.6879 33.9174 37.282 34.6665 37.8103C36.0424 38.7793 36.6989 40.7957 37.1135 40.7957Z" fill="white"/>
<path d="M33.2035 33.2017C34.4274 33.2432 35.6432 33.4179 36.8299 33.7229C37.9812 34.0192 39.1606 34.1899 40.3479 34.2321C41.3575 34.2355 42.358 34.0391 43.2928 33.654L44.8895 33.0032C45.4692 31.8999 45.7727 30.6699 45.7733 29.4207V22.7488H28.4536V29.4207C28.4556 31.0059 28.9451 32.5513 29.8543 33.8432L30.3415 33.73C31.2541 33.3735 32.2251 33.1943 33.2035 33.2017ZM42.5513 40.8263L39.6828 38.8214C39.6828 38.8214 39.3423 39.1157 39.2768 39.1977C38.8491 39.7671 38.486 40.3833 38.1943 41.0346C38.1303 41.2763 37.9902 41.4903 37.7953 41.6445C37.6003 41.7987 37.361 41.8846 37.1135 41.8894C36.8732 41.8786 36.6415 41.7961 36.4476 41.6523C36.2537 41.5086 36.1063 41.31 36.024 41.0817C35.7027 40.4337 35.2871 39.8381 34.791 39.3147C34.6671 39.195 34.3964 38.8931 34.3964 38.8931L31.6762 40.8263C30.6807 41.5326 29.8682 42.4707 29.3073 43.5613C28.7464 44.6518 28.4536 45.8628 28.4536 47.0918V49.5457C29.8744 49.5457 32.3787 47.4396 33.8747 46.1813C34.1833 45.9191 34.4951 45.6608 34.81 45.4064C35.4726 44.9046 36.2777 44.6322 37.1057 44.6296C37.9338 44.6271 38.7405 44.8945 39.4062 45.3921C39.7141 45.6339 40.0719 45.9335 40.4508 46.2507C41.9219 47.4834 44.3851 49.5457 45.7733 49.5457V47.0918C45.7734 45.8628 45.4807 44.6519 44.9199 43.5614C44.359 42.4708 43.5467 41.5327 42.5513 40.8263Z" fill="white"/>
<path d="M47.3975 55.5613H26.8303C26.6868 55.5613 26.5491 55.5037 26.4476 55.4011C26.3461 55.2985 26.2891 55.1594 26.2891 55.0144C26.2891 54.8694 26.3461 54.7303 26.4476 54.6277C26.5491 54.5251 26.6868 54.4675 26.8303 54.4675H47.3975C47.541 54.4675 47.6787 54.5251 47.7802 54.6277C47.8817 54.7303 47.9387 54.8694 47.9387 55.0144C47.9387 55.1594 47.8817 55.2985 47.7802 55.4011C47.6787 55.5037 47.541 55.5613 47.3975 55.5613ZM47.3975 21.655H26.8303C26.6868 21.655 26.5491 21.5974 26.4476 21.4949C26.3461 21.3923 26.2891 21.2532 26.2891 21.1082C26.2891 20.9631 26.3461 20.824 26.4476 20.7215C26.5491 20.6189 26.6868 20.5613 26.8303 20.5613H47.3975C47.541 20.5613 47.6787 20.6189 47.7802 20.7215C47.8817 20.824 47.9387 20.9631 47.9387 21.1082C47.9387 21.2532 47.8817 21.3923 47.7802 21.4949C47.6787 21.5974 47.541 21.655 47.3975 21.655Z" fill="white"/>
</g>
<defs>
<clipPath id="clip0_167_593">
<rect width="34.6395" height="35" fill="white" transform="translate(19.7939 20.5613)"/>
</clipPath>
</defs>
</svg>
