<svg width="75" height="77" viewBox="0 0 75 77" fill="none" xmlns="http://www.w3.org/2000/svg">
<ellipse cx="37.5" cy="38.671" rx="37.5" ry="37.8903" fill="#FA0C00"/>
<path d="M53.5513 24.5577H48.3013V22.8077C48.3013 21.84 47.519 21.0577 46.5513 21.0577H29.0513C28.0835 21.0577 27.3013 21.84 27.3013 22.8077V24.5577H22.0513C21.0835 24.5577 20.3013 25.34 20.3013 26.3077V31.5577C20.3013 39.1002 23.4495 43.6502 28.7345 43.8287C30.2745 46.4695 32.9275 48.3735 36.0513 48.9002V52.5577H32.5513V56.0577H43.0513V52.5577H39.5513V48.9002C42.6733 48.3717 45.328 46.4677 46.868 43.8287C52.153 43.6502 55.3013 39.1002 55.3013 31.5577V26.3077C55.3013 25.34 54.519 24.5577 53.5513 24.5577ZM23.8013 31.5577V28.0577H27.3013V38.5945V40.0102C24.1793 38.6942 23.8013 33.831 23.8013 31.5577ZM37.8013 45.5577C33.9408 45.5577 30.8013 42.4182 30.8013 38.5577V24.5577H44.8013V38.5577C44.8013 42.4182 41.6618 45.5577 37.8013 45.5577ZM48.3013 40.0102V38.5945V28.0577H51.8013V31.5577C51.8013 33.831 51.4233 38.6942 48.3013 40.0102Z" fill="white"/>
</svg>
