<svg width="42" height="50" viewBox="0 0 42 50" fill="none" xmlns="http://www.w3.org/2000/svg">
<rect x="0.0585938" y="0.641113" width="41.1523" height="49.3182" rx="6" fill="#F2F7FB"/>
<path d="M30.6327 14.6021H16.3877V16.4989H30.6327V14.6021Z" fill="black"/>
<path d="M30.6327 24.0863H16.3877V25.9832H30.6327V24.0863Z" fill="black"/>
<path d="M30.6327 33.5707H16.3877V35.4676H30.6327V33.5707Z" fill="black"/>
<path d="M13.2222 19.3442V12.231H10.0566V14.1278H11.6394V19.3442H13.2222Z" fill="black"/>
<path d="M10.0566 25.3971V28.3543H14.0136V26.4575H11.8262L14.0136 25.1468V21.2411H10.0566V23.138H12.4308V23.9744L10.0566 25.3971Z" fill="black"/>
<path d="M10.0566 35.9417V37.8385H14.0136V30.2511H10.0566V32.148H12.4308V33.0964H11.2437V34.9932H12.4308V35.9417H10.0566Z" fill="black"/>
</svg>
