<svg width="66" height="67" viewBox="0 0 66 67" fill="none" xmlns="http://www.w3.org/2000/svg">
<circle cx="33" cy="33.6006" r="33" fill="black"/>
<path d="M47.9999 21.8846H27.2307V24.1923H47.9999V21.8846Z" fill="white"/>
<path d="M47.9999 33.423H27.2307V35.7307H47.9999V33.423Z" fill="white"/>
<path d="M47.9999 44.9615H27.2307V47.2692H47.9999V44.9615Z" fill="white"/>
<path d="M22.6154 27.6538V19H18V21.3077H20.3077V27.6538H22.6154Z" fill="white"/>
<path d="M18 35.0176V38.6154H23.7692V36.3077H20.5801L23.7692 34.7132V29.9615H18V32.2692H21.4615V33.2869L18 35.0176Z" fill="white"/>
<path d="M18 47.8461V50.1538H23.7692V40.923H18V43.2307H21.4615V44.3846H19.7308V46.6923H21.4615V47.8461H18Z" fill="white"/>
</svg>
