<svg width="61" height="57" viewBox="0 0 61 57" fill="none" xmlns="http://www.w3.org/2000/svg">
<rect x="0.27002" y="0.445557" width="59.7832" height="56.0676" rx="6" fill="#F2F7FB"/>
<path d="M28.4131 16.9669L27.7593 19.2238C30.1284 19.5957 32.3237 20.6265 34.0604 22.1827C35.7972 23.7389 36.9953 25.7486 37.4993 27.9512L39.9756 27.6893C39.415 25.0216 38.013 22.5733 35.9515 20.6615C33.8899 18.7497 31.2637 17.4626 28.4131 16.9669Z" fill="#010D82"/>
<path d="M39.6553 17.2961C36.9562 14.7517 33.5166 13.0107 29.7673 12.2911L29.1138 14.5469C35.9762 15.8128 41.3792 20.9401 42.6327 27.4075L45.1074 27.1456C44.4255 23.4109 42.5198 19.9682 39.6553 17.2961Z" fill="#010D82"/>
<path d="M24.9969 21.5752C24.9154 21.5741 24.8341 21.5741 24.7529 21.5752C22.2154 21.5971 19.7899 22.5579 18.0039 24.2484C16.2178 25.9389 15.2158 28.2225 15.2158 30.6023H17.7166C17.7166 28.8383 18.4584 27.1455 19.7809 25.8912C21.1035 24.637 22.9001 23.9224 24.7809 23.9027C24.8352 23.9023 24.8895 23.9023 24.9438 23.9027C28.8016 23.9529 31.9606 26.9382 31.9857 30.5572C31.9961 31.4732 31.8042 32.3813 31.4221 33.2244C31.04 34.0675 30.4759 34.8272 29.7654 35.4559C29.5839 35.6189 29.4395 35.8146 29.3407 36.0313C29.2419 36.248 29.1909 36.4812 29.1908 36.7169V40.4046C29.1895 41.4931 28.7279 42.5368 27.9072 43.3066C27.0866 44.0764 25.9738 44.5095 24.8131 44.5108H24.1431V46.839H24.8311C26.65 46.837 28.3938 46.1586 29.6799 44.9523C30.966 43.7461 31.6895 42.1107 31.6915 40.4049V36.9623C33.4934 35.2542 34.4986 32.9452 34.4863 30.5425C34.4627 28.1827 33.4576 25.9248 31.6851 24.2498C29.9126 22.5749 27.5128 21.6152 24.9969 21.5752Z" fill="#010D82"/>
<path d="M28.8782 30.6023C28.8805 30.1038 28.7778 29.6098 28.576 29.1486C28.3742 28.6874 28.0773 28.2682 27.7023 27.9149C27.3272 27.5616 26.8815 27.2813 26.3907 27.09C25.8998 26.8988 25.3735 26.8003 24.8419 26.8003C24.3104 26.8003 23.7841 26.8988 23.2932 27.09C22.8024 27.2813 22.3566 27.5616 21.9816 27.9149C21.6066 28.2682 21.3096 28.6874 21.1078 29.1486C20.9061 29.6098 20.8034 30.1038 20.8057 30.6023H23.2881C23.2867 30.4101 23.3258 30.2195 23.4032 30.0415C23.4807 29.8635 23.5949 29.7016 23.7393 29.5652C23.8838 29.4288 24.0555 29.3205 24.2448 29.2467C24.434 29.1728 24.637 29.1347 24.8419 29.1347C25.0469 29.1347 25.2499 29.1728 25.4391 29.2467C25.6283 29.3205 25.8001 29.4288 25.9446 29.5652C26.089 29.7016 26.2032 29.8635 26.2806 30.0415C26.3581 30.2195 26.3972 30.4101 26.3958 30.6023H28.8782Z" fill="#010D82"/>
<path d="M26.1519 32.8701H23.6694V35.1982H26.1519V32.8701Z" fill="#010D82"/>
<path d="M18.0845 40.4366H15.6021V42.7647H18.0845V40.4366Z" fill="#010D82"/>
<path d="M18.2612 33.8685L16.5059 35.5147L23.3326 41.9171L25.0879 40.271L18.2612 33.8685Z" fill="#010D82"/>
</svg>
