<svg width="34" height="34" viewBox="0 0 34 34" fill="none" xmlns="http://www.w3.org/2000/svg">
<path d="M16.9997 2.83301C20.8488 2.83301 21.329 2.84717 22.8392 2.91801C24.3479 2.98884 25.375 3.22542 26.2788 3.57676C27.2138 3.93659 28.0015 4.42392 28.7892 5.21017C29.5095 5.91836 30.0669 6.77501 30.4226 7.72051C30.7725 8.62292 31.0105 9.65142 31.0813 11.1602C31.1479 12.6703 31.1663 13.1506 31.1663 16.9997C31.1663 20.8488 31.1522 21.329 31.0813 22.8392C31.0105 24.3479 30.7725 25.375 30.4226 26.2788C30.068 27.2249 29.5104 28.0817 28.7892 28.7892C28.0808 29.5093 27.2242 30.0667 26.2788 30.4226C25.3764 30.7725 24.3479 31.0105 22.8392 31.0813C21.329 31.1479 20.8488 31.1663 16.9997 31.1663C13.1506 31.1663 12.6703 31.1522 11.1602 31.0813C9.65142 31.0105 8.62434 30.7725 7.72051 30.4226C6.77464 30.0677 5.91784 29.5102 5.21017 28.7892C4.48967 28.0811 3.93224 27.2244 3.57676 26.2788C3.22542 25.3764 2.98884 24.3479 2.91801 22.8392C2.85142 21.329 2.83301 20.8488 2.83301 16.9997C2.83301 13.1506 2.84717 12.6703 2.91801 11.1602C2.98884 9.65001 3.22542 8.62434 3.57676 7.72051C3.93126 6.77443 4.48881 5.91755 5.21017 5.21017C5.91804 4.48942 6.77478 3.93196 7.72051 3.57676C8.62434 3.22542 9.65001 2.98884 11.1602 2.91801C12.6703 2.85142 13.1506 2.83301 16.9997 2.83301ZM16.9997 9.91634C15.1211 9.91634 13.3194 10.6626 11.991 11.991C10.6626 13.3194 9.91634 15.1211 9.91634 16.9997C9.91634 18.8783 10.6626 20.68 11.991 22.0083C13.3194 23.3367 15.1211 24.083 16.9997 24.083C18.8783 24.083 20.68 23.3367 22.0083 22.0083C23.3367 20.68 24.083 18.8783 24.083 16.9997C24.083 15.1211 23.3367 13.3194 22.0083 11.991C20.68 10.6626 18.8783 9.91634 16.9997 9.91634ZM26.208 9.56217C26.208 9.09252 26.0214 8.6421 25.6893 8.31001C25.3573 7.97791 24.9068 7.79134 24.4372 7.79134C23.9675 7.79134 23.5171 7.97791 23.185 8.31001C22.8529 8.6421 22.6663 9.09252 22.6663 9.56217C22.6663 10.0318 22.8529 10.4822 23.185 10.8143C23.5171 11.1464 23.9675 11.333 24.4372 11.333C24.9068 11.333 25.3573 11.1464 25.6893 10.8143C26.0214 10.4822 26.208 10.0318 26.208 9.56217ZM16.9997 12.7497C18.1268 12.7497 19.2078 13.1974 20.0049 13.9945C20.8019 14.7915 21.2497 15.8725 21.2497 16.9997C21.2497 18.1268 20.8019 19.2078 20.0049 20.0049C19.2078 20.8019 18.1268 21.2497 16.9997 21.2497C15.8725 21.2497 14.7915 20.8019 13.9945 20.0049C13.1974 19.2078 12.7497 18.1268 12.7497 16.9997C12.7497 15.8725 13.1974 14.7915 13.9945 13.9945C14.7915 13.1974 15.8725 12.7497 16.9997 12.7497Z" fill="#FA0C00"/>
</svg>
