<svg width="21" height="24" viewBox="0 0 21 24" fill="none" xmlns="http://www.w3.org/2000/svg">
<path d="M11.0292 0.0199997C12.3486 0 13.6579 0.00999987 14.9672 0C15.0477 1.52998 15.6017 3.08996 16.7297 4.16995C17.8577 5.27993 19.449 5.78993 21 5.95993V9.98987C19.5497 9.93987 18.0893 9.63988 16.77 9.01989C16.1959 8.75989 15.6621 8.42989 15.1384 8.0899C15.1283 11.0099 15.1485 13.9298 15.1182 16.8398C15.0377 18.2398 14.5744 19.6298 13.7586 20.7797C12.4392 22.6997 10.153 23.9497 7.80633 23.9897C6.3661 24.0697 4.92587 23.6797 3.69715 22.9597C1.66271 21.7697 0.232553 19.5898 0.0210512 17.2498C0.000908141 16.7498 -0.00916336 16.2498 0.0109797 15.7598C0.192267 13.8598 1.13899 12.0398 2.60943 10.7999C4.2813 9.35988 6.61789 8.66989 8.8034 9.07989C8.82355 10.5599 8.76312 12.0398 8.76312 13.5198C7.76604 13.1998 6.59775 13.2898 5.72152 13.8898C5.08702 14.2998 4.60359 14.9298 4.3518 15.6398C4.1403 16.1498 4.20073 16.7098 4.2108 17.2498C4.45251 18.8898 6.04381 20.2697 7.73583 20.1197C8.86383 20.1097 9.94148 19.4598 10.5256 18.5098C10.717 18.1798 10.9285 17.8398 10.9386 17.4498C11.0393 15.6598 10.999 13.8798 11.0091 12.0898C11.0191 8.0599 10.999 4.03995 11.0292 0.0199997Z" fill="#FA0C00"/>
</svg>
