<svg width="43" height="39" viewBox="0 0 43 39" fill="none" xmlns="http://www.w3.org/2000/svg">
<g filter="url(#filter0_d_164_2342)">
<path fill-rule="evenodd" clip-rule="evenodd" d="M4.75016 15.5002C4.75016 16.0555 4.97075 16.5881 5.36341 16.9807C5.75606 17.3734 6.28862 17.594 6.84391 17.594H31.1021L22.1115 26.5803C21.9169 26.775 21.7624 27.0061 21.6571 27.2604C21.5517 27.5148 21.4975 27.7874 21.4975 28.0627C21.4975 28.338 21.5517 28.6106 21.6571 28.865C21.7624 29.1193 21.9169 29.3504 22.1115 29.5451C22.3062 29.7397 22.5373 29.8942 22.7917 29.9995C23.046 30.1049 23.3186 30.1591 23.5939 30.1591C23.8692 30.1591 24.1418 30.1049 24.3962 29.9995C24.6505 29.8942 24.8816 29.7397 25.0763 29.5451L37.6388 16.9826C37.8338 16.7881 37.9885 16.557 38.094 16.3027C38.1996 16.0483 38.2539 15.7756 38.2539 15.5002C38.2539 15.2248 38.1996 14.9521 38.094 14.6977C37.9885 14.4434 37.8338 14.2123 37.6388 14.0178L25.0763 1.45533C24.6831 1.06218 24.1499 0.841309 23.5939 0.841309C23.0379 0.841309 22.5047 1.06218 22.1115 1.45533C21.7184 1.84848 21.4975 2.38171 21.4975 2.9377C21.4975 3.4937 21.7184 4.02693 22.1115 4.42008L31.1021 13.4065H6.84391C6.28862 13.4065 5.75606 13.627 5.36341 14.0197C4.97075 14.4124 4.75016 14.9449 4.75016 15.5002Z" fill="white"/>
</g>
<defs>
<filter id="filter0_d_164_2342" x="0.75" y="0.841309" width="41.5039" height="37.3179" filterUnits="userSpaceOnUse" color-interpolation-filters="sRGB">
<feFlood flood-opacity="0" result="BackgroundImageFix"/>
<feColorMatrix in="SourceAlpha" type="matrix" values="0 0 0 0 0 0 0 0 0 0 0 0 0 0 0 0 0 0 127 0" result="hardAlpha"/>
<feOffset dy="4"/>
<feGaussianBlur stdDeviation="2"/>
<feComposite in2="hardAlpha" operator="out"/>
<feColorMatrix type="matrix" values="0 0 0 0 0 0 0 0 0 0 0 0 0 0 0 0 0 0 0.25 0"/>
<feBlend mode="normal" in2="BackgroundImageFix" result="effect1_dropShadow_164_2342"/>
<feBlend mode="normal" in="SourceGraphic" in2="effect1_dropShadow_164_2342" result="shape"/>
</filter>
</defs>
</svg>
