<svg width="272" height="57" viewBox="0 0 272 57" fill="none" xmlns="http://www.w3.org/2000/svg">
<circle cx="7.5" cy="7.5" r="7.5" transform="matrix(-1 0 0 1 232 0)" fill="#CCCFE6"/>
<circle cx="7.5" cy="7.5" r="7.5" transform="matrix(-1 0 0 1 232 42)" fill="#CCCFE6"/>
<circle cx="7.5" cy="7.5" r="7.5" transform="matrix(-1 0 0 1 272 0)" fill="#CCCFE6"/>
<circle cx="7.5" cy="7.5" r="7.5" transform="matrix(-1 0 0 1 272 42)" fill="#CCCFE6"/>
<circle cx="7.5" cy="7.5" r="7.5" transform="matrix(-1 0 0 1 152 0)" fill="#CCCFE6"/>
<circle cx="7.5" cy="7.5" r="7.5" transform="matrix(-1 0 0 1 152 42)" fill="#CCCFE6"/>
<circle cx="7.5" cy="7.5" r="7.5" transform="matrix(-1 0 0 1 192 0)" fill="#CCCFE6"/>
<circle cx="7.5" cy="7.5" r="7.5" transform="matrix(-1 0 0 1 192 42)" fill="#CCCFE6"/>
<circle cx="7.5" cy="7.5" r="7.5" transform="matrix(-1 0 0 1 72 0)" fill="#CCCFE6"/>
<circle cx="7.5" cy="7.5" r="7.5" transform="matrix(-1 0 0 1 72 42)" fill="#CCCFE6"/>
<circle cx="7.5" cy="7.5" r="7.5" transform="matrix(-1 0 0 1 112 0)" fill="#CCCFE6"/>
<circle cx="7.5" cy="7.5" r="7.5" transform="matrix(-1 0 0 1 112 42)" fill="#CCCFE6"/>
<circle cx="7.5" cy="7.5" r="7.5" transform="matrix(-1 0 0 1 32 0)" fill="#CCCFE6"/>
<circle cx="7.5" cy="7.5" r="7.5" transform="matrix(-1 0 0 1 32 42)" fill="#CCCFE6"/>
</svg>
