<svg width="400" height="239" viewBox="0 0 400 239" fill="none" xmlns="http://www.w3.org/2000/svg">
    <circle cx="7.5" cy="7.5" r="7.5" transform="matrix(-1 0 0 1 375 0)" fill="#41436B" />
    <circle cx="7.5" cy="7.5" r="7.5" transform="matrix(-1 0 0 1 375 64)" fill="#41436B" />
    <circle cx="7.5" cy="7.5" r="7.5" transform="matrix(-1 0 0 1 375 32)" fill="#41436B" />
    <circle cx="7.5" cy="7.5" r="7.5" transform="matrix(-1 0 0 1 375 96)" fill="#41436B" />
    <circle cx="7.5" cy="7.5" r="7.5" transform="matrix(-1 0 0 1 295 0)" fill="#41436B" />
    <circle cx="7.5" cy="7.5" r="7.5" transform="matrix(-1 0 0 1 295 64)" fill="#41436B" />
    <circle cx="7.5" cy="7.5" r="7.5" transform="matrix(-1 0 0 1 295 32)" fill="#41436B" />
    <circle cx="7.5" cy="7.5" r="7.5" transform="matrix(-1 0 0 1 295 96)" fill="#41436B" />
    <circle cx="7.5" cy="7.5" r="7.5" transform="matrix(-1 0 0 1 335 0)" fill="#41436B" />
    <circle cx="7.5" cy="7.5" r="7.5" transform="matrix(-1 0 0 1 335 64)" fill="#41436B" />
    <circle cx="7.5" cy="7.5" r="7.5" transform="matrix(-1 0 0 1 335 32)" fill="#41436B" />
    <circle cx="7.5" cy="7.5" r="7.5" transform="matrix(-1 0 0 1 335 96)" fill="#41436B" />
    <circle cx="7.5" cy="7.5" r="7.5" transform="matrix(-1 0 0 1 215 0)" fill="#41436B" />
    <circle cx="7.5" cy="7.5" r="7.5" transform="matrix(-1 0 0 1 215 64)" fill="#41436B" />
    <circle cx="7.5" cy="7.5" r="7.5" transform="matrix(-1 0 0 1 215 32)" fill="#41436B" />
    <circle cx="7.5" cy="7.5" r="7.5" transform="matrix(-1 0 0 1 215 96)" fill="#41436B" />
    <circle cx="7.5" cy="7.5" r="7.5" transform="matrix(-1 0 0 1 255 0)" fill="#41436B" />
    <circle cx="7.5" cy="7.5" r="7.5" transform="matrix(-1 0 0 1 255 64)" fill="#41436B" />
    <circle cx="7.5" cy="7.5" r="7.5" transform="matrix(-1 0 0 1 255 32)" fill="#41436B" />
    <circle cx="7.5" cy="7.5" r="7.5" transform="matrix(-1 0 0 1 255 96)" fill="#41436B" />
    <circle cx="7.5" cy="7.5" r="7.5" transform="matrix(-1 0 0 1 135 0)" fill="#41436B" />
    <circle cx="7.5" cy="7.5" r="7.5" transform="matrix(-1 0 0 1 135 64)" fill="#41436B" />
    <circle cx="7.5" cy="7.5" r="7.5" transform="matrix(-1 0 0 1 135 32)" fill="#41436B" />
    <circle cx="7.5" cy="7.5" r="7.5" transform="matrix(-1 0 0 1 135 96)" fill="#41436B" />
    <circle cx="7.5" cy="7.5" r="7.5" transform="matrix(-1 0 0 1 175 0)" fill="#41436B" />
    <circle cx="7.5" cy="7.5" r="7.5" transform="matrix(-1 0 0 1 175 64)" fill="#41436B" />
    <circle cx="7.5" cy="7.5" r="7.5" transform="matrix(-1 0 0 1 175 32)" fill="#41436B" />
    <circle cx="7.5" cy="7.5" r="7.5" transform="matrix(-1 0 0 1 175 96)" fill="#41436B" />
    <circle cx="7.5" cy="7.5" r="7.5" transform="matrix(-1 0 0 1 55 0)" fill="#41436B" />
    <circle cx="7.5" cy="7.5" r="7.5" transform="matrix(-1 0 0 1 55 64)" fill="#41436B" />
    <circle cx="7.5" cy="7.5" r="7.5" transform="matrix(-1 0 0 1 55 32)" fill="#41436B" />
    <circle cx="7.5" cy="7.5" r="7.5" transform="matrix(-1 0 0 1 55 96)" fill="#41436B" />
    <circle cx="7.5" cy="7.5" r="7.5" transform="matrix(-1 0 0 1 95 0)" fill="#41436B" />
    <circle cx="7.5" cy="7.5" r="7.5" transform="matrix(-1 0 0 1 95 64)" fill="#41436B" />
    <circle cx="7.5" cy="7.5" r="7.5" transform="matrix(-1 0 0 1 95 32)" fill="#41436B" />
    <circle cx="7.5" cy="7.5" r="7.5" transform="matrix(-1 0 0 1 95 96)" fill="#41436B" />
    <circle cx="7.5" cy="7.5" r="7.5" transform="matrix(-1 0 0 1 15 0)" fill="#41436B" />
    <circle cx="7.5" cy="7.5" r="7.5" transform="matrix(-1 0 0 1 15 64)" fill="#41436B" />
    <circle cx="7.5" cy="7.5" r="7.5" transform="matrix(-1 0 0 1 15 32)" fill="#41436B" />
    <circle cx="7.5" cy="7.5" r="7.5" transform="matrix(-1 0 0 1 15 96)" fill="#41436B" />
    <circle cx="7.5" cy="7.5" r="7.5" transform="matrix(-1 0 0 1 375 128)" fill="#41436B" />
    <circle cx="7.5" cy="7.5" r="7.5" transform="matrix(-1 0 0 1 375 192)" fill="#41436B" />
    <circle cx="7.5" cy="7.5" r="7.5" transform="matrix(-1 0 0 1 375 160)" fill="#41436B" />
    <circle cx="7.5" cy="7.5" r="7.5" transform="matrix(-1 0 0 1 375 224)" fill="#41436B" />
    <circle cx="7.5" cy="7.5" r="7.5" transform="matrix(-1 0 0 1 295 128)" fill="#41436B" />
    <circle cx="7.5" cy="7.5" r="7.5" transform="matrix(-1 0 0 1 295 192)" fill="#41436B" />
    <circle cx="7.5" cy="7.5" r="7.5" transform="matrix(-1 0 0 1 295 160)" fill="#41436B" />
    <circle cx="7.5" cy="7.5" r="7.5" transform="matrix(-1 0 0 1 295 224)" fill="#41436B" />
    <circle cx="7.5" cy="7.5" r="7.5" transform="matrix(-1 0 0 1 335 128)" fill="#41436B" />
    <circle cx="7.5" cy="7.5" r="7.5" transform="matrix(-1 0 0 1 335 192)" fill="#41436B" />
    <circle cx="7.5" cy="7.5" r="7.5" transform="matrix(-1 0 0 1 335 160)" fill="#41436B" />
    <circle cx="7.5" cy="7.5" r="7.5" transform="matrix(-1 0 0 1 335 224)" fill="#41436B" />
    <circle cx="7.5" cy="7.5" r="7.5" transform="matrix(-1 0 0 1 215 128)" fill="#41436B" />
    <circle cx="7.5" cy="7.5" r="7.5" transform="matrix(-1 0 0 1 215 192)" fill="#41436B" />
    <circle cx="7.5" cy="7.5" r="7.5" transform="matrix(-1 0 0 1 215 160)" fill="#41436B" />
    <circle cx="7.5" cy="7.5" r="7.5" transform="matrix(-1 0 0 1 215 224)" fill="#41436B" />
    <circle cx="7.5" cy="7.5" r="7.5" transform="matrix(-1 0 0 1 255 128)" fill="#41436B" />
    <circle cx="7.5" cy="7.5" r="7.5" transform="matrix(-1 0 0 1 255 192)" fill="#41436B" />
    <circle cx="7.5" cy="7.5" r="7.5" transform="matrix(-1 0 0 1 255 160)" fill="#41436B" />
    <circle cx="7.5" cy="7.5" r="7.5" transform="matrix(-1 0 0 1 255 224)" fill="#41436B" />
    <circle cx="7.5" cy="7.5" r="7.5" transform="matrix(-1 0 0 1 135 128)" fill="#41436B" />
    <circle cx="7.5" cy="7.5" r="7.5" transform="matrix(-1 0 0 1 135 192)" fill="#41436B" />
    <circle cx="7.5" cy="7.5" r="7.5" transform="matrix(-1 0 0 1 135 160)" fill="#41436B" />
    <circle cx="7.5" cy="7.5" r="7.5" transform="matrix(-1 0 0 1 135 224)" fill="#41436B" />
    <circle cx="7.5" cy="7.5" r="7.5" transform="matrix(-1 0 0 1 175 128)" fill="#41436B" />
    <circle cx="7.5" cy="7.5" r="7.5" transform="matrix(-1 0 0 1 175 192)" fill="#41436B" />
    <circle cx="7.5" cy="7.5" r="7.5" transform="matrix(-1 0 0 1 175 160)" fill="#41436B" />
    <circle cx="7.5" cy="7.5" r="7.5" transform="matrix(-1 0 0 1 175 224)" fill="#41436B" />
    <circle cx="7.5" cy="7.5" r="7.5" transform="matrix(-1 0 0 1 55 128)" fill="#41436B" />
    <circle cx="7.5" cy="7.5" r="7.5" transform="matrix(-1 0 0 1 55 192)" fill="#41436B" />
    <circle cx="7.5" cy="7.5" r="7.5" transform="matrix(-1 0 0 1 55 160)" fill="#41436B" />
    <circle cx="7.5" cy="7.5" r="7.5" transform="matrix(-1 0 0 1 55 224)" fill="#41436B" />
    <circle cx="7.5" cy="7.5" r="7.5" transform="matrix(-1 0 0 1 95 128)" fill="#41436B" />
    <circle cx="7.5" cy="7.5" r="7.5" transform="matrix(-1 0 0 1 95 192)" fill="#41436B" />
    <circle cx="7.5" cy="7.5" r="7.5" transform="matrix(-1 0 0 1 95 160)" fill="#41436B" />
    <circle cx="7.5" cy="7.5" r="7.5" transform="matrix(-1 0 0 1 95 224)" fill="#41436B" />
    <circle cx="7.5" cy="7.5" r="7.5" transform="matrix(-1 0 0 1 15 128)" fill="#41436B" />
    <circle cx="7.5" cy="7.5" r="7.5" transform="matrix(-1 0 0 1 15 192)" fill="#41436B" />
    <circle cx="7.5" cy="7.5" r="7.5" transform="matrix(-1 0 0 1 15 160)" fill="#41436B" />
    <circle cx="7.5" cy="7.5" r="7.5" transform="matrix(-1 0 0 1 15 224)" fill="#41436B" />
</svg>